{
  "asset" : {
    "version" : "2.0",
    "generator" : "3D-Coat GLTF exporter at http:\\3d-coat.com"
  },
  "scene" : 0,
  "scenes" : [
    {
      "name" : "Scene",
      "nodes" : [0,1,2,3,4,5]
    }
  ],
  "nodes" : [
    {
      "name" : "__head",
      "mesh" : 0,
      "matrix" : [1.00000000,0.00000000,0.00000000,0.00000000,0.00000000,-0.00000000,-1.00000000,0.00000000,0.00000000,1.00000000,-0.00000000,0.00000000,0.00000000,0.00000000,0.00000000,1.00000000]
    },
    {
      "name" : "__handleRings",
      "mesh" : 1,
      "matrix" : [0.31043500,0.00000000,0.00000000,0.00000000,0.00000000,-0.00000000,-0.31043500,0.00000000,0.00000000,0.31167299,-0.00000000,0.00000000,0.00000000,-1.31167305,0.00000000,1.00000000]
    },
    {
      "name" : "__loop",
      "mesh" : 2,
      "matrix" : [0.31043500,0.00000000,0.00000000,0.00000000,0.00000000,-0.00000000,-0.31043500,0.00000000,0.00000000,0.31167299,-0.00000000,0.00000000,0.00000000,-1.31167305,0.00000000,1.00000000]
    },
    {
      "name" : "__rivets",
      "mesh" : 3,
      "matrix" : [-0.15817100,-0.00000000,-0.00000000,0.00000000,-0.00000000,0.15817100,0.00000000,0.00000000,0.00000000,0.00000000,-0.15817100,0.00000000,0.66389900,0.45802400,1.18717003,1.00000000]
    },
    {
      "name" : "__handle",
      "mesh" : 4,
      "matrix" : [0.31043500,0.00000000,0.00000000,0.00000000,0.00000000,-0.00000000,-0.31043500,0.00000000,0.00000000,0.31167299,-0.00000000,0.00000000,0.00000000,-1.31167305,0.00000000,1.00000000]
    },
    {
      "name" : "__headRings",
      "mesh" : 5,
      "matrix" : [1.00000000,0.00000000,0.00000000,0.00000000,0.00000000,-0.00000000,-1.00000000,0.00000000,0.00000000,1.00000000,-0.00000000,0.00000000,0.00000000,0.00000000,0.00000000,1.00000000]
    }
  ],
  "meshes" : [
    {
      "name" : "__head",
      "primitives" : [
        {
          "mode" : 4,
          "indices" : 3,
          "material" : 0,
          "attributes" : {
            "POSITION" : 0,
            "NORMAL" : 1,
            "TEXCOORD_0" : 2
          }
        }
      ]
    },
    {
      "name" : "__handleRings",
      "primitives" : [
        {
          "mode" : 4,
          "indices" : 7,
          "material" : 0,
          "attributes" : {
            "POSITION" : 4,
            "NORMAL" : 5,
            "TEXCOORD_0" : 6
          }
        }
      ]
    },
    {
      "name" : "__loop",
      "primitives" : [
        {
          "mode" : 4,
          "indices" : 11,
          "material" : 0,
          "attributes" : {
            "POSITION" : 8,
            "NORMAL" : 9,
            "TEXCOORD_0" : 10
          }
        }
      ]
    },
    {
      "name" : "__rivets",
      "primitives" : [
        {
          "mode" : 4,
          "indices" : 15,
          "material" : 0,
          "attributes" : {
            "POSITION" : 12,
            "NORMAL" : 13,
            "TEXCOORD_0" : 14
          }
        }
      ]
    },
    {
      "name" : "__handle",
      "primitives" : [
        {
          "mode" : 4,
          "indices" : 19,
          "material" : 0,
          "attributes" : {
            "POSITION" : 16,
            "NORMAL" : 17,
            "TEXCOORD_0" : 18
          }
        }
      ]
    },
    {
      "name" : "__headRings",
      "primitives" : [
        {
          "mode" : 4,
          "indices" : 23,
          "material" : 0,
          "attributes" : {
            "POSITION" : 20,
            "NORMAL" : 21,
            "TEXCOORD_0" : 22
          }
        }
      ]
    }
  ],
  "materials" : [
    {
      "name" : "Material",
      "pbrMetallicRoughness" : {
        "metallicFactor" : 0.000000,
        "roughnessFactor" : 1.000000,
        "baseColorFactor" : [1.00000000,1.00000000,1.00000000,1.00000000],
        "baseColorTexture" : {
          "index" : 0,
          "texCoord" : 0
        }
      }
    }
  ],
  "textures" : [
    {
      "sampler" : 0,
      "source" : 0
    }
  ],
  "samplers" : [
    {
      "minFilter" : 9987,
      "magFilter" : 9729,
      "wrapS" : 10497,
      "wrapT" : 10497
    }
  ],
  "images" : [
    {
      "uri" : "hammer-2_baseColor.png"
    }
  ],
  "accessors" : [
    {
      "bufferView" : 0,
      "componentType" : 5126,
      "count" : 104,
      "normalized" : true,
      "min" : [-1.60204136,-1.00000012,-1.00000024],
      "max" : [1.60204136,1.00000000,1.00000000],
      "type" : "VEC3"
    },
    {
      "bufferView" : 1,
      "componentType" : 5126,
      "count" : 104,
      "normalized" : true,
      "type" : "VEC3"
    },
    {
      "bufferView" : 2,
      "componentType" : 5126,
      "count" : 104,
      "normalized" : true,
      "type" : "VEC2"
    },
    {
      "bufferView" : 3,
      "componentType" : 5125,
      "count" : 132,
      "normalized" : false,
      "type" : "SCALAR"
    },
    {
      "bufferView" : 4,
      "componentType" : 5126,
      "count" : 202,
      "normalized" : true,
      "min" : [-0.34377885,-4.13372040,-0.34377891],
      "max" : [0.34377885,-1.00000012,0.34377888],
      "type" : "VEC3"
    },
    {
      "bufferView" : 5,
      "componentType" : 5126,
      "count" : 202,
      "normalized" : true,
      "type" : "VEC3"
    },
    {
      "bufferView" : 6,
      "componentType" : 5126,
      "count" : 202,
      "normalized" : true,
      "type" : "VEC2"
    },
    {
      "bufferView" : 7,
      "componentType" : 5125,
      "count" : 216,
      "normalized" : false,
      "type" : "SCALAR"
    },
    {
      "bufferView" : 8,
      "componentType" : 5126,
      "count" : 124,
      "normalized" : true,
      "min" : [-0.12810242,-4.70144939,-0.26360774],
      "max" : [0.12810242,-4.13258934,0.26360875],
      "type" : "VEC3"
    },
    {
      "bufferView" : 9,
      "componentType" : 5126,
      "count" : 124,
      "normalized" : true,
      "type" : "VEC3"
    },
    {
      "bufferView" : 10,
      "componentType" : 5126,
      "count" : 124,
      "normalized" : true,
      "type" : "VEC2"
    },
    {
      "bufferView" : 11,
      "componentType" : 5125,
      "count" : 174,
      "normalized" : false,
      "type" : "SCALAR"
    },
    {
      "bufferView" : 12,
      "componentType" : 5126,
      "count" : 499,
      "normalized" : true,
      "min" : [-0.82207030,-0.64332414,-1.07306242],
      "max" : [0.82207024,0.61619568,1.07306242],
      "type" : "VEC3"
    },
    {
      "bufferView" : 13,
      "componentType" : 5126,
      "count" : 499,
      "normalized" : true,
      "type" : "VEC3"
    },
    {
      "bufferView" : 14,
      "componentType" : 5126,
      "count" : 499,
      "normalized" : true,
      "type" : "VEC2"
    },
    {
      "bufferView" : 15,
      "componentType" : 5125,
      "count" : 528,
      "normalized" : false,
      "type" : "SCALAR"
    },
    {
      "bufferView" : 16,
      "componentType" : 5126,
      "count" : 34,
      "normalized" : true,
      "min" : [-0.26694354,-3.48426962,-0.26694351],
      "max" : [0.26694354,-1.58101797,0.26694390],
      "type" : "VEC3"
    },
    {
      "bufferView" : 17,
      "componentType" : 5126,
      "count" : 34,
      "normalized" : true,
      "type" : "VEC3"
    },
    {
      "bufferView" : 18,
      "componentType" : 5126,
      "count" : 34,
      "normalized" : true,
      "type" : "VEC2"
    },
    {
      "bufferView" : 19,
      "componentType" : 5125,
      "count" : 48,
      "normalized" : false,
      "type" : "SCALAR"
    },
    {
      "bufferView" : 20,
      "componentType" : 5126,
      "count" : 224,
      "normalized" : true,
      "min" : [-0.95353359,-1.02899849,-1.02899861],
      "max" : [0.95353359,1.02899837,1.02899837],
      "type" : "VEC3"
    },
    {
      "bufferView" : 21,
      "componentType" : 5126,
      "count" : 224,
      "normalized" : true,
      "type" : "VEC3"
    },
    {
      "bufferView" : 22,
      "componentType" : 5126,
      "count" : 224,
      "normalized" : true,
      "type" : "VEC2"
    },
    {
      "bufferView" : 23,
      "componentType" : 5125,
      "count" : 288,
      "normalized" : false,
      "type" : "SCALAR"
    }
  ],
  "bufferViews" : [
    {
      "buffer" : 0,
      "byteOffset" : 0,
      "byteLength" : 1248
    },
    {
      "buffer" : 0,
      "byteOffset" : 1248,
      "byteLength" : 1248
    },
    {
      "buffer" : 0,
      "byteOffset" : 2496,
      "byteLength" : 832
    },
    {
      "buffer" : 0,
      "byteOffset" : 3328,
      "byteLength" : 528
    },
    {
      "buffer" : 0,
      "byteOffset" : 3856,
      "byteLength" : 2424
    },
    {
      "buffer" : 0,
      "byteOffset" : 6280,
      "byteLength" : 2424
    },
    {
      "buffer" : 0,
      "byteOffset" : 8704,
      "byteLength" : 1616
    },
    {
      "buffer" : 0,
      "byteOffset" : 10320,
      "byteLength" : 864
    },
    {
      "buffer" : 0,
      "byteOffset" : 11184,
      "byteLength" : 1488
    },
    {
      "buffer" : 0,
      "byteOffset" : 12672,
      "byteLength" : 1488
    },
    {
      "buffer" : 0,
      "byteOffset" : 14160,
      "byteLength" : 992
    },
    {
      "buffer" : 0,
      "byteOffset" : 15152,
      "byteLength" : 696
    },
    {
      "buffer" : 0,
      "byteOffset" : 15848,
      "byteLength" : 5988
    },
    {
      "buffer" : 0,
      "byteOffset" : 21836,
      "byteLength" : 5988
    },
    {
      "buffer" : 0,
      "byteOffset" : 27824,
      "byteLength" : 3992
    },
    {
      "buffer" : 0,
      "byteOffset" : 31816,
      "byteLength" : 2112
    },
    {
      "buffer" : 0,
      "byteOffset" : 33928,
      "byteLength" : 408
    },
    {
      "buffer" : 0,
      "byteOffset" : 34336,
      "byteLength" : 408
    },
    {
      "buffer" : 0,
      "byteOffset" : 34744,
      "byteLength" : 272
    },
    {
      "buffer" : 0,
      "byteOffset" : 35016,
      "byteLength" : 192
    },
    {
      "buffer" : 0,
      "byteOffset" : 35208,
      "byteLength" : 2688
    },
    {
      "buffer" : 0,
      "byteOffset" : 37896,
      "byteLength" : 2688
    },
    {
      "buffer" : 0,
      "byteOffset" : 40584,
      "byteLength" : 1792
    },
    {
      "buffer" : 0,
      "byteOffset" : 42376,
      "byteLength" : 1152
    }
  ],
  "buffers" : [
    {
      "byteLength" : 43528,
      "uri" : "hammer-2.bin"
    }
  ]
}